<?xml version="1.0" encoding="UTF-8"?>
<!DOCTYPE svg PUBLIC "-//W3C//DTD SVG 1.1//EN" "http://www.w3.org/Graphics/SVG/1.1/DTD/svg11.dtd">
<!-- Creator: CorelDRAW X7 -->
<svg xmlns="http://www.w3.org/2000/svg" xml:space="preserve" width="8.5in" height="11in" version="1.1" style="shape-rendering:geometricPrecision; text-rendering:geometricPrecision; image-rendering:optimizeQuality; fill-rule:evenodd; clip-rule:evenodd"
viewBox="0 0 8500 11000"
 xmlns:xlink="http://www.w3.org/1999/xlink">
 <defs>
  <style type="text/css">
   <![CDATA[
    .str0 {stroke:#527FBA;stroke-width:6.94488}
    .fil0 {fill:#527FBA}
   ]]>
  </style>
 </defs>
 <g id="Layer_x0020_1">
  <metadata id="CorelCorpID_0Corel-Layer"/>
  <path class="fil0 str0" d="M2361 3466l3593 0c258,0 470,212 470,470l0 3582c0,259 -212,470 -470,470l-3593 0c-258,0 -470,-211 -470,-470l0 -3582c0,-258 212,-470 470,-470zm1284 2522l389 120c-60,219 -159,381 -298,488 -139,106 -315,159 -528,159 -265,0 -482,-90 -652,-271 -170,-180 -255,-427 -255,-741 0,-331 85,-588 256,-771 171,-184 396,-275 675,-275 243,0 441,72 593,216 91,85 158,207 204,367l-398 94c-23,-102 -72,-184 -147,-244 -75,-59 -166,-89 -272,-89 -148,0 -268,53 -359,159 -93,105 -138,277 -138,514 0,251 45,430 135,536 91,107 209,161 354,161 106,0 199,-34 275,-102 77,-68 133,-175 166,-321zm1243 734l-712 -1989 435 0 505 1472 485 -1472 428 0 -707 1989 -434 0z"/>
 </g>
</svg>
